<svg version="1.1" xmlns="http://www.w3.org/2000/svg" viewBox="0 0 1309.9084249084249 653" width="2619.8168498168498" height="1306">
  <!-- svg-source:excalidraw -->
  
  <defs>
    <style class="style-fonts">
      @font-face {
        font-family: "Virgil";
        src: url("https://excalidraw.com/Virgil.woff2");
      }
      @font-face {
        font-family: "Cascadia";
        src: url("https://excalidraw.com/Cascadia.woff2");
      }
    </style>
  </defs>
  <g stroke-linecap="round" transform="translate(658.9084249084249 10) rotate(0 320.5 316.5)"><path d="M32 0 M32 0 C247.39 0, 462.78 0, 609 0 M32 0 C245.77 0, 459.54 0, 609 0 M609 0 C630.33 0, 641 10.67, 641 32 M609 0 C630.33 0, 641 10.67, 641 32 M641 32 C641 244.93, 641 457.87, 641 601 M641 32 C641 213.84, 641 395.68, 641 601 M641 601 C641 622.33, 630.33 633, 609 633 M641 601 C641 622.33, 630.33 633, 609 633 M609 633 C393.48 633, 177.96 633, 32 633 M609 633 C435.1 633, 261.2 633, 32 633 M32 633 C10.67 633, 0 622.33, 0 601 M32 633 C10.67 633, 0 622.33, 0 601 M0 601 C0 425.3, 0 249.59, 0 32 M0 601 C0 435.7, 0 270.41, 0 32 M0 32 C0 10.67, 10.67 0, 32 0 M0 32 C0 10.67, 10.67 0, 32 0" stroke="#4678a1" stroke-width="1" fill="none"></path></g><g transform="translate(683.9084249084249 23.19999999999999) rotate(0 262.5 16.799999999999997)"><text x="0" y="0" font-family="Cascadia, Segoe UI Emoji" font-size="28px" fill="#4678a1" text-anchor="start" style="white-space: pre;" direction="ltr" dominant-baseline="text-before-edge">Microsoft Azure - UK Data centre</text></g><g stroke-linecap="round" transform="translate(890.9084249084249 84.48589341692787) rotate(0 189 252.09874608150471)"><path d="M32 0 L346 0 L353.5 0.5 L360 2 L365.5 4.5 L370 8 L373.5 12.5 L376 18 L377.5 24.5 L378 32 L378 472.2 L377.5 479.7 L376 486.2 L373.5 491.7 L370 496.2 L365.5 499.7 L360 502.2 L353.5 503.7 L346 504.2 L32 504.2 L24.5 503.7 L18 502.2 L12.5 499.7 L8 496.2 L4.5 491.7 L2 486.2 L0.5 479.7 L0 472.2 L0 32 L0.5 24.5 L2 18 L4.5 12.5 L8 8 L12.5 4.5 L18 2 L24.5 0.5 L32 0" stroke="none" stroke-width="0" fill="#4678a1"></path><path d="M32 0 M32 0 C152.52 0, 273.03 0, 346 0 M32 0 C105.37 0, 178.74 0, 346 0 M346 0 C367.33 0, 378 10.67, 378 32 M346 0 C367.33 0, 378 10.67, 378 32 M378 32 C378 152.2, 378 272.39, 378 472.2 M378 32 C378 133.46, 378 234.91, 378 472.2 M378 472.2 C378 493.53, 367.33 504.2, 346 504.2 M378 472.2 C378 493.53, 367.33 504.2, 346 504.2 M346 504.2 C233.42 504.2, 120.84 504.2, 32 504.2 M346 504.2 C263.75 504.2, 181.51 504.2, 32 504.2 M32 504.2 C10.67 504.2, 0 493.53, 0 472.2 M32 504.2 C10.67 504.2, 0 493.53, 0 472.2 M0 472.2 C0 314.59, 0 156.98, 0 32 M0 472.2 C0 323.8, 0 175.4, 0 32 M0 32 C0 10.67, 10.67 0, 32 0 M0 32 C0 10.67, 10.67 0, 32 0" stroke="#4678a1" stroke-width="1" fill="none"></path></g><g transform="translate(918.1623434037226 118.5203761755485) rotate(0 139.453125 50.400000000000006)"><text x="0" y="0" font-family="Cascadia, Segoe UI Emoji" font-size="28px" fill="#ffffff" text-anchor="start" style="white-space: pre;" direction="ltr" dominant-baseline="text-before-edge">ClinRisk /</text><text x="0" y="33.6" font-family="Cascadia, Segoe UI Emoji" font-size="28px" fill="#ffffff" text-anchor="start" style="white-space: pre;" direction="ltr" dominant-baseline="text-before-edge">Endeavour Predict</text><text x="0" y="67.2" font-family="Cascadia, Segoe UI Emoji" font-size="28px" fill="#ffffff" text-anchor="start" style="white-space: pre;" direction="ltr" dominant-baseline="text-before-edge">API</text></g><g stroke-linecap="round" transform="translate(41.54530885436816 23.28683940735499) rotate(0 29.070519330231747 19.38034622015452)"><path d="M9.69 0 L48.45 0 L52.69 0.61 L55.72 2.42 L57.54 5.45 L58.14 9.69 L58.14 29.07 L57.54 33.31 L55.72 36.34 L52.69 38.16 L48.45 38.76 L9.69 38.76 L5.45 38.16 L2.42 36.34 L0.61 33.31 L0 29.07 L0.61 5.45 L2.42 2.42 L5.45 0.61 L9.69 0" stroke="none" stroke-width="0" fill="#ced4da"></path><path d="M9.69 0 M9.69 0 C22.04 0, 34.38 0, 48.45 0 M9.69 0 C20.06 0, 30.43 0, 48.45 0 M48.45 0 C54.91 0, 58.14 3.23, 58.14 9.69 M48.45 0 C54.91 0, 58.14 3.23, 58.14 9.69 M58.14 9.69 C58.14 15.54, 58.14 21.38, 58.14 29.07 M58.14 9.69 C58.14 15.79, 58.14 21.89, 58.14 29.07 M58.14 29.07 C58.14 35.53, 54.91 38.76, 48.45 38.76 M58.14 29.07 C58.14 35.53, 54.91 38.76, 48.45 38.76 M48.45 38.76 C39.83 38.76, 31.22 38.76, 9.69 38.76 M48.45 38.76 C33 38.76, 17.55 38.76, 9.69 38.76 M9.69 38.76 C3.23 38.76, 0 35.53, 0 29.07 M9.69 38.76 C3.23 38.76, 0 35.53, 0 29.07 M0 29.07 C0 24.97, 0 20.86, 0 9.69 M0 29.07 C0 24.23, 0 19.39, 0 9.69 M0 9.69 C0 3.23, 3.23 0, 9.69 0 M0 9.69 C0 3.23, 3.23 0, 9.69 0" stroke="#343a40" stroke-width="2" fill="none"></path></g><g stroke-linecap="round" transform="translate(36 66.36180472417908) rotate(0 34.158424908424934 4.675677934232979)"><path d="M2.34 0 L65.98 0 L67.73 0.58 L68.32 2.34 L68.32 7.01 L67.73 8.77 L65.98 9.35 L2.34 9.35 L0.58 8.77 L0 7.01 L0.58 0.58 L2.34 0" stroke="none" stroke-width="0" fill="#ced4da"></path><path d="M2.34 0 M2.34 0 C19.39 0, 36.43 0, 65.98 0 M2.34 0 C18.57 0, 34.81 0, 65.98 0 M65.98 0 C67.54 0, 68.32 0.78, 68.32 2.34 M65.98 0 C67.54 0, 68.32 0.78, 68.32 2.34 M68.32 2.34 C68.32 3.59, 68.32 4.84, 68.32 7.01 M68.32 2.34 C68.32 3.45, 68.32 4.56, 68.32 7.01 M68.32 7.01 C68.32 8.57, 67.54 9.35, 65.98 9.35 M68.32 7.01 C68.32 8.57, 67.54 9.35, 65.98 9.35 M65.98 9.35 C45.96 9.35, 25.93 9.35, 2.34 9.35 M65.98 9.35 C51.49 9.35, 37.01 9.35, 2.34 9.35 M2.34 9.35 C0.78 9.35, 0 8.57, 0 7.01 M2.34 9.35 C0.78 9.35, 0 8.57, 0 7.01 M0 7.01 C0 5.15, 0 3.29, 0 2.34 M0 7.01 C0 5.99, 0 4.98, 0 2.34 M0 2.34 C0 0.78, 0.78 0, 2.34 0 M0 2.34 C0 0.78, 0.78 0, 2.34 0" stroke="#343a40" stroke-width="2" fill="none"></path></g><g stroke-linecap="round" transform="translate(86.3678076060927 69.78624490136411) rotate(0 6.120820957724533 1.179895253357003)"><path d="M0.59 0 L11.65 0 L12.24 1.77 L11.65 2.36 L0.59 2.36 L0 1.77 L0.59 0" stroke="none" stroke-width="0" fill="#343a40"></path><path d="M0.59 0 M0.59 0 C3.82 0, 7.04 0, 11.65 0 M0.59 0 C4.91 0, 9.22 0, 11.65 0 M11.65 0 C12.04 0, 12.24 0.2, 12.24 0.59 M11.65 0 C12.04 0, 12.24 0.2, 12.24 0.59 M12.24 0.59 C12.24 0.96, 12.24 1.32, 12.24 1.77 M12.24 0.59 C12.24 0.85, 12.24 1.1, 12.24 1.77 M12.24 1.77 C12.24 2.16, 12.04 2.36, 11.65 2.36 M12.24 1.77 C12.24 2.16, 12.04 2.36, 11.65 2.36 M11.65 2.36 C8.73 2.36, 5.82 2.36, 0.59 2.36 M11.65 2.36 C9.06 2.36, 6.47 2.36, 0.59 2.36 M0.59 2.36 C0.2 2.36, 0 2.16, 0 1.77 M0.59 2.36 C0.2 2.36, 0 2.16, 0 1.77 M0 1.77 C0 1.34, 0 0.91, 0 0.59 M0 1.77 C0 1.53, 0 1.28, 0 0.59 M0 0.59 C0 0.2, 0.2 0, 0.59 0 M0 0.59 C0 0.2, 0.2 0, 0.59 0" stroke="#343a40" stroke-width="2" fill="none"></path></g><g stroke-linecap="round" transform="translate(64.67968648392264 62.65199453222846) rotate(0 6.120820957724533 1.179895253357003)"><path d="M0.59 0 L11.65 0 L12.24 1.77 L11.65 2.36 L0.59 2.36 L0 1.77 L0.59 0" stroke="none" stroke-width="0" fill="#343a40"></path><path d="M0.59 0 M0.59 0 C2.85 0, 5.1 0, 11.65 0 M0.59 0 C4.51 0, 8.43 0, 11.65 0 M11.65 0 C12.04 0, 12.24 0.2, 12.24 0.59 M11.65 0 C12.04 0, 12.24 0.2, 12.24 0.59 M12.24 0.59 C12.24 0.84, 12.24 1.1, 12.24 1.77 M12.24 0.59 C12.24 0.9, 12.24 1.21, 12.24 1.77 M12.24 1.77 C12.24 2.16, 12.04 2.36, 11.65 2.36 M12.24 1.77 C12.24 2.16, 12.04 2.36, 11.65 2.36 M11.65 2.36 C9.06 2.36, 6.47 2.36, 0.59 2.36 M11.65 2.36 C7.51 2.36, 3.36 2.36, 0.59 2.36 M0.59 2.36 C0.2 2.36, 0 2.16, 0 1.77 M0.59 2.36 C0.2 2.36, 0 2.16, 0 1.77 M0 1.77 C0 1.47, 0 1.17, 0 0.59 M0 1.77 C0 1.48, 0 1.19, 0 0.59 M0 0.59 C0 0.2, 0.2 0, 0.59 0 M0 0.59 C0 0.2, 0.2 0, 0.59 0" stroke="#343a40" stroke-width="2" fill="none"></path></g><g stroke-linecap="round" transform="translate(46.53847650305329 27.771065477810623) rotate(0 24.11446288866233 15.125362843360548)"><path d="M7.56 0 L40.67 0 L43.97 0.47 L46.34 1.89 L47.76 4.25 L48.23 7.56 L48.23 22.69 L47.76 26 L46.34 28.36 L43.97 29.78 L40.67 30.25 L7.56 30.25 L4.25 29.78 L1.89 28.36 L0.47 26 L0 22.69 L0.47 4.25 L1.89 1.89 L4.25 0.47 L7.56 0" stroke="none" stroke-width="0" fill="#343a40"></path><path d="M7.56 0 M7.56 0 C18.16 0, 28.75 0, 40.67 0 M7.56 0 C16.9 0, 26.24 0, 40.67 0 M40.67 0 C45.71 0, 48.23 2.52, 48.23 7.56 M40.67 0 C45.71 0, 48.23 2.52, 48.23 7.56 M48.23 7.56 C48.23 12.95, 48.23 18.34, 48.23 22.69 M48.23 7.56 C48.23 12.72, 48.23 17.87, 48.23 22.69 M48.23 22.69 C48.23 27.73, 45.71 30.25, 40.67 30.25 M48.23 22.69 C48.23 27.73, 45.71 30.25, 40.67 30.25 M40.67 30.25 C27.67 30.25, 14.67 30.25, 7.56 30.25 M40.67 30.25 C31.13 30.25, 21.59 30.25, 7.56 30.25 M7.56 30.25 C2.52 30.25, 0 27.73, 0 22.69 M7.56 30.25 C2.52 30.25, 0 27.73, 0 22.69 M0 22.69 C0 17.88, 0 13.07, 0 7.56 M0 22.69 C0 18.48, 0 14.28, 0 7.56 M0 7.56 C0 2.52, 2.52 0, 7.56 0 M0 7.56 C0 2.52, 2.52 0, 7.56 0" stroke="#343a40" stroke-width="2" fill="none"></path></g><g stroke-linecap="round" transform="translate(76.04530885436816 266.78683940735493) rotate(0 29.070519330231747 19.380346220154536)"><path d="M9.69 0 L48.45 0 L52.69 0.61 L55.72 2.42 L57.54 5.45 L58.14 9.69 L58.14 29.07 L57.54 33.31 L55.72 36.34 L52.69 38.16 L48.45 38.76 L9.69 38.76 L5.45 38.16 L2.42 36.34 L0.61 33.31 L0 29.07 L0.61 5.45 L2.42 2.42 L5.45 0.61 L9.69 0" stroke="none" stroke-width="0" fill="#ced4da"></path><path d="M9.69 0 M9.69 0 C17.55 0, 25.41 0, 48.45 0 M9.69 0 C23.95 0, 38.2 0, 48.45 0 M48.45 0 C54.91 0, 58.14 3.23, 58.14 9.69 M48.45 0 C54.91 0, 58.14 3.23, 58.14 9.69 M58.14 9.69 C58.14 14.39, 58.14 19.1, 58.14 29.07 M58.14 9.69 C58.14 16.99, 58.14 24.29, 58.14 29.07 M58.14 29.07 C58.14 35.53, 54.91 38.76, 48.45 38.76 M58.14 29.07 C58.14 35.53, 54.91 38.76, 48.45 38.76 M48.45 38.76 C35.13 38.76, 21.81 38.76, 9.69 38.76 M48.45 38.76 C39.21 38.76, 29.98 38.76, 9.69 38.76 M9.69 38.76 C3.23 38.76, 0 35.53, 0 29.07 M9.69 38.76 C3.23 38.76, 0 35.53, 0 29.07 M0 29.07 C0 22.4, 0 15.72, 0 9.69 M0 29.07 C0 22.16, 0 15.25, 0 9.69 M0 9.69 C0 3.23, 3.23 0, 9.69 0 M0 9.69 C0 3.23, 3.23 0, 9.69 0" stroke="#343a40" stroke-width="2" fill="none"></path></g><g stroke-linecap="round" transform="translate(70.5 309.861804724179) rotate(0 34.158424908424934 4.6756779342329935)"><path d="M2.34 0 L65.98 0 L67.73 0.58 L68.32 2.34 L68.32 7.01 L67.73 8.77 L65.98 9.35 L2.34 9.35 L0.58 8.77 L0 7.01 L0.58 0.58 L2.34 0" stroke="none" stroke-width="0" fill="#ced4da"></path><path d="M2.34 0 M2.34 0 C25.29 0, 48.25 0, 65.98 0 M2.34 0 C17.37 0, 32.4 0, 65.98 0 M65.98 0 C67.54 0, 68.32 0.78, 68.32 2.34 M65.98 0 C67.54 0, 68.32 0.78, 68.32 2.34 M68.32 2.34 C68.32 4.06, 68.32 5.78, 68.32 7.01 M68.32 2.34 C68.32 3.64, 68.32 4.95, 68.32 7.01 M68.32 7.01 C68.32 8.57, 67.54 9.35, 65.98 9.35 M68.32 7.01 C68.32 8.57, 67.54 9.35, 65.98 9.35 M65.98 9.35 C42.01 9.35, 18.03 9.35, 2.34 9.35 M65.98 9.35 C50.67 9.35, 35.36 9.35, 2.34 9.35 M2.34 9.35 C0.78 9.35, 0 8.57, 0 7.01 M2.34 9.35 C0.78 9.35, 0 8.57, 0 7.01 M0 7.01 C0 5.9, 0 4.79, 0 2.34 M0 7.01 C0 5.29, 0 3.57, 0 2.34 M0 2.34 C0 0.78, 0.78 0, 2.34 0 M0 2.34 C0 0.78, 0.78 0, 2.34 0" stroke="#343a40" stroke-width="2" fill="none"></path></g><g stroke-linecap="round" transform="translate(120.86780760609258 313.28624490136406) rotate(0 6.120820957724533 1.1798952533570173)"><path d="M0.59 0 L11.65 0 L12.24 1.77 L11.65 2.36 L0.59 2.36 L0 1.77 L0.59 0" stroke="none" stroke-width="0" fill="#343a40"></path><path d="M0.59 0 M0.59 0 C2.91 0, 5.22 0, 11.65 0 M0.59 0 C3.7 0, 6.81 0, 11.65 0 M11.65 0 C12.04 0, 12.24 0.2, 12.24 0.59 M11.65 0 C12.04 0, 12.24 0.2, 12.24 0.59 M12.24 0.59 C12.24 0.95, 12.24 1.31, 12.24 1.77 M12.24 0.59 C12.24 1.03, 12.24 1.47, 12.24 1.77 M12.24 1.77 C12.24 2.16, 12.04 2.36, 11.65 2.36 M12.24 1.77 C12.24 2.16, 12.04 2.36, 11.65 2.36 M11.65 2.36 C9.27 2.36, 6.88 2.36, 0.59 2.36 M11.65 2.36 C7.32 2.36, 3 2.36, 0.59 2.36 M0.59 2.36 C0.2 2.36, 0 2.16, 0 1.77 M0.59 2.36 C0.2 2.36, 0 2.16, 0 1.77 M0 1.77 C0 1.4, 0 1.03, 0 0.59 M0 1.77 C0 1.39, 0 1.02, 0 0.59 M0 0.59 C0 0.2, 0.2 0, 0.59 0 M0 0.59 C0 0.2, 0.2 0, 0.59 0" stroke="#343a40" stroke-width="2" fill="none"></path></g><g stroke-linecap="round" transform="translate(99.17968648392252 306.1519945322284) rotate(0 6.120820957724533 1.1798952533570173)"><path d="M0.59 0 L11.65 0 L12.24 1.77 L11.65 2.36 L0.59 2.36 L0 1.77 L0.59 0" stroke="none" stroke-width="0" fill="#343a40"></path><path d="M0.59 0 M0.59 0 C3.25 0, 5.91 0, 11.65 0 M0.59 0 C3.78 0, 6.97 0, 11.65 0 M11.65 0 C12.04 0, 12.24 0.2, 12.24 0.59 M11.65 0 C12.04 0, 12.24 0.2, 12.24 0.59 M12.24 0.59 C12.24 0.83, 12.24 1.08, 12.24 1.77 M12.24 0.59 C12.24 0.98, 12.24 1.37, 12.24 1.77 M12.24 1.77 C12.24 2.16, 12.04 2.36, 11.65 2.36 M12.24 1.77 C12.24 2.16, 12.04 2.36, 11.65 2.36 M11.65 2.36 C8.06 2.36, 4.47 2.36, 0.59 2.36 M11.65 2.36 C8.64 2.36, 5.62 2.36, 0.59 2.36 M0.59 2.36 C0.2 2.36, 0 2.16, 0 1.77 M0.59 2.36 C0.2 2.36, 0 2.16, 0 1.77 M0 1.77 C0 1.42, 0 1.07, 0 0.59 M0 1.77 C0 1.44, 0 1.11, 0 0.59 M0 0.59 C0 0.2, 0.2 0, 0.59 0 M0 0.59 C0 0.2, 0.2 0, 0.59 0" stroke="#343a40" stroke-width="2" fill="none"></path></g><g stroke-linecap="round" transform="translate(81.03847650305329 271.27106547781057) rotate(0 24.11446288866233 15.125362843360563)"><path d="M7.56 0 L40.67 0 L43.97 0.47 L46.34 1.89 L47.76 4.25 L48.23 7.56 L48.23 22.69 L47.76 26 L46.34 28.36 L43.97 29.78 L40.67 30.25 L7.56 30.25 L4.25 29.78 L1.89 28.36 L0.47 26 L0 22.69 L0.47 4.25 L1.89 1.89 L4.25 0.47 L7.56 0" stroke="none" stroke-width="0" fill="#343a40"></path><path d="M7.56 0 M7.56 0 C20.3 0, 33.04 0, 40.67 0 M7.56 0 C20.48 0, 33.4 0, 40.67 0 M40.67 0 C45.71 0, 48.23 2.52, 48.23 7.56 M40.67 0 C45.71 0, 48.23 2.52, 48.23 7.56 M48.23 7.56 C48.23 12.88, 48.23 18.19, 48.23 22.69 M48.23 7.56 C48.23 12.92, 48.23 18.27, 48.23 22.69 M48.23 22.69 C48.23 27.73, 45.71 30.25, 40.67 30.25 M48.23 22.69 C48.23 27.73, 45.71 30.25, 40.67 30.25 M40.67 30.25 C31.61 30.25, 22.55 30.25, 7.56 30.25 M40.67 30.25 C31.48 30.25, 22.29 30.25, 7.56 30.25 M7.56 30.25 C2.52 30.25, 0 27.73, 0 22.69 M7.56 30.25 C2.52 30.25, 0 27.73, 0 22.69 M0 22.69 C0 18.56, 0 14.44, 0 7.56 M0 22.69 C0 18.7, 0 14.71, 0 7.56 M0 7.56 C0 2.52, 2.52 0, 7.56 0 M0 7.56 C0 2.52, 2.52 0, 7.56 0" stroke="#343a40" stroke-width="2" fill="none"></path></g><g stroke-linecap="round" transform="translate(15.545308854368159 504.28683940735505) rotate(0 29.070519330231747 19.380346220154536)"><path d="M9.69 0 L48.45 0 L52.69 0.61 L55.72 2.42 L57.54 5.45 L58.14 9.69 L58.14 29.07 L57.54 33.31 L55.72 36.34 L52.69 38.16 L48.45 38.76 L9.69 38.76 L5.45 38.16 L2.42 36.34 L0.61 33.31 L0 29.07 L0.61 5.45 L2.42 2.42 L5.45 0.61 L9.69 0" stroke="none" stroke-width="0" fill="#ced4da"></path><path d="M9.69 0 M9.69 0 C24.82 0, 39.96 0, 48.45 0 M9.69 0 C21.62 0, 33.56 0, 48.45 0 M48.45 0 C54.91 0, 58.14 3.23, 58.14 9.69 M48.45 0 C54.91 0, 58.14 3.23, 58.14 9.69 M58.14 9.69 C58.14 17.42, 58.14 25.14, 58.14 29.07 M58.14 9.69 C58.14 14.31, 58.14 18.93, 58.14 29.07 M58.14 29.07 C58.14 35.53, 54.91 38.76, 48.45 38.76 M58.14 29.07 C58.14 35.53, 54.91 38.76, 48.45 38.76 M48.45 38.76 C36.14 38.76, 23.82 38.76, 9.69 38.76 M48.45 38.76 C33.33 38.76, 18.2 38.76, 9.69 38.76 M9.69 38.76 C3.23 38.76, 0 35.53, 0 29.07 M9.69 38.76 C3.23 38.76, 0 35.53, 0 29.07 M0 29.07 C0 22.26, 0 15.44, 0 9.69 M0 29.07 C0 25.1, 0 21.12, 0 9.69 M0 9.69 C0 3.23, 3.23 0, 9.69 0 M0 9.69 C0 3.23, 3.23 0, 9.69 0" stroke="#343a40" stroke-width="2" fill="none"></path></g><g stroke-linecap="round" transform="translate(10 547.3618047241791) rotate(0 34.158424908424934 4.675677934232965)"><path d="M2.34 0 L65.98 0 L67.73 0.58 L68.32 2.34 L68.32 7.01 L67.73 8.77 L65.98 9.35 L2.34 9.35 L0.58 8.77 L0 7.01 L0.58 0.58 L2.34 0" stroke="none" stroke-width="0" fill="#ced4da"></path><path d="M2.34 0 M2.34 0 C17.71 0, 33.08 0, 65.98 0 M2.34 0 C25.29 0, 48.25 0, 65.98 0 M65.98 0 C67.54 0, 68.32 0.78, 68.32 2.34 M65.98 0 C67.54 0, 68.32 0.78, 68.32 2.34 M68.32 2.34 C68.32 3.78, 68.32 5.22, 68.32 7.01 M68.32 2.34 C68.32 3.56, 68.32 4.78, 68.32 7.01 M68.32 7.01 C68.32 8.57, 67.54 9.35, 65.98 9.35 M68.32 7.01 C68.32 8.57, 67.54 9.35, 65.98 9.35 M65.98 9.35 C50.81 9.35, 35.64 9.35, 2.34 9.35 M65.98 9.35 C51.25 9.35, 36.52 9.35, 2.34 9.35 M2.34 9.35 C0.78 9.35, 0 8.57, 0 7.01 M2.34 9.35 C0.78 9.35, 0 8.57, 0 7.01 M0 7.01 C0 5.19, 0 3.36, 0 2.34 M0 7.01 C0 5.79, 0 4.57, 0 2.34 M0 2.34 C0 0.78, 0.78 0, 2.34 0 M0 2.34 C0 0.78, 0.78 0, 2.34 0" stroke="#343a40" stroke-width="2" fill="none"></path></g><g stroke-linecap="round" transform="translate(60.36780760609258 550.7862449013642) rotate(0 6.120820957724533 1.1798952533570173)"><path d="M0.59 0 L11.65 0 L12.24 1.77 L11.65 2.36 L0.59 2.36 L0 1.77 L0.59 0" stroke="none" stroke-width="0" fill="#343a40"></path><path d="M0.59 0 M0.59 0 C3.82 0, 7.06 0, 11.65 0 M0.59 0 C4.56 0, 8.52 0, 11.65 0 M11.65 0 C12.04 0, 12.24 0.2, 12.24 0.59 M11.65 0 C12.04 0, 12.24 0.2, 12.24 0.59 M12.24 0.59 C12.24 1.05, 12.24 1.51, 12.24 1.77 M12.24 0.59 C12.24 0.85, 12.24 1.11, 12.24 1.77 M12.24 1.77 C12.24 2.16, 12.04 2.36, 11.65 2.36 M12.24 1.77 C12.24 2.16, 12.04 2.36, 11.65 2.36 M11.65 2.36 C7.71 2.36, 3.77 2.36, 0.59 2.36 M11.65 2.36 C8.83 2.36, 6.01 2.36, 0.59 2.36 M0.59 2.36 C0.2 2.36, 0 2.16, 0 1.77 M0.59 2.36 C0.2 2.36, 0 2.16, 0 1.77 M0 1.77 C0 1.47, 0 1.16, 0 0.59 M0 1.77 C0 1.34, 0 0.91, 0 0.59 M0 0.59 C0 0.2, 0.2 0, 0.59 0 M0 0.59 C0 0.2, 0.2 0, 0.59 0" stroke="#343a40" stroke-width="2" fill="none"></path></g><g stroke-linecap="round" transform="translate(38.679686483922524 543.6519945322284) rotate(0 6.120820957724533 1.1798952533570173)"><path d="M0.59 0 L11.65 0 L12.24 1.77 L11.65 2.36 L0.59 2.36 L0 1.77 L0.59 0" stroke="none" stroke-width="0" fill="#343a40"></path><path d="M0.59 0 M0.59 0 C3.92 0, 7.26 0, 11.65 0 M0.59 0 C4.26 0, 7.94 0, 11.65 0 M11.65 0 C12.04 0, 12.24 0.2, 12.24 0.59 M11.65 0 C12.04 0, 12.24 0.2, 12.24 0.59 M12.24 0.59 C12.24 0.96, 12.24 1.33, 12.24 1.77 M12.24 0.59 C12.24 0.87, 12.24 1.16, 12.24 1.77 M12.24 1.77 C12.24 2.16, 12.04 2.36, 11.65 2.36 M12.24 1.77 C12.24 2.16, 12.04 2.36, 11.65 2.36 M11.65 2.36 C7.52 2.36, 3.39 2.36, 0.59 2.36 M11.65 2.36 C9.37 2.36, 7.08 2.36, 0.59 2.36 M0.59 2.36 C0.2 2.36, 0 2.16, 0 1.77 M0.59 2.36 C0.2 2.36, 0 2.16, 0 1.77 M0 1.77 C0 1.4, 0 1.02, 0 0.59 M0 1.77 C0 1.41, 0 1.05, 0 0.59 M0 0.59 C0 0.2, 0.2 0, 0.59 0 M0 0.59 C0 0.2, 0.2 0, 0.59 0" stroke="#343a40" stroke-width="2" fill="none"></path></g><g stroke-linecap="round" transform="translate(20.53847650305329 508.7710654778107) rotate(0 24.11446288866233 15.125362843360563)"><path d="M7.56 0 L40.67 0 L43.97 0.47 L46.34 1.89 L47.76 4.25 L48.23 7.56 L48.23 22.69 L47.76 26 L46.34 28.36 L43.97 29.78 L40.67 30.25 L7.56 30.25 L4.25 29.78 L1.89 28.36 L0.47 26 L0 22.69 L0.47 4.25 L1.89 1.89 L4.25 0.47 L7.56 0" stroke="none" stroke-width="0" fill="#343a40"></path><path d="M7.56 0 M7.56 0 C16.81 0, 26.06 0, 40.67 0 M7.56 0 C18.32 0, 29.07 0, 40.67 0 M40.67 0 C45.71 0, 48.23 2.52, 48.23 7.56 M40.67 0 C45.71 0, 48.23 2.52, 48.23 7.56 M48.23 7.56 C48.23 11.2, 48.23 14.84, 48.23 22.69 M48.23 7.56 C48.23 12.07, 48.23 16.57, 48.23 22.69 M48.23 22.69 C48.23 27.73, 45.71 30.25, 40.67 30.25 M48.23 22.69 C48.23 27.73, 45.71 30.25, 40.67 30.25 M40.67 30.25 C28.47 30.25, 16.27 30.25, 7.56 30.25 M40.67 30.25 C28.86 30.25, 17.06 30.25, 7.56 30.25 M7.56 30.25 C2.52 30.25, 0 27.73, 0 22.69 M7.56 30.25 C2.52 30.25, 0 27.73, 0 22.69 M0 22.69 C0 17.21, 0 11.73, 0 7.56 M0 22.69 C0 19.22, 0 15.75, 0 7.56 M0 7.56 C0 2.52, 2.52 0, 7.56 0 M0 7.56 C0 2.52, 2.52 0, 7.56 0" stroke="#343a40" stroke-width="2" fill="none"></path></g><g transform="translate(12.408424908424877 396) rotate(0 73.828125 33.60000000000002)"><text x="73.828125" y="0" font-family="Cascadia, Segoe UI Emoji" font-size="28px" fill="#4678a1" text-anchor="middle" style="white-space: pre;" direction="ltr" dominant-baseline="text-before-edge">Clinical</text><text x="73.828125" y="33.6" font-family="Cascadia, Segoe UI Emoji" font-size="28px" fill="#4678a1" text-anchor="middle" style="white-space: pre;" direction="ltr" dominant-baseline="text-before-edge">End Users</text></g><g stroke-linecap="round" transform="translate(327.4993339993339 159.60782345103763) rotate(0 34.65909090909099 43.700592885375585)"><path d="M0 0 L69.32 0 L69.32 87.4 L0 87.4" stroke="none" stroke-width="0" fill="#0000"></path><path d="M0 0 C26.72 0, 53.44 0, 69.32 0 M0 0 C15.77 0, 31.55 0, 69.32 0 M69.32 0 C69.32 19.31, 69.32 38.63, 69.32 87.4 M69.32 0 C69.32 25.17, 69.32 50.33, 69.32 87.4 M69.32 87.4 C54.13 87.4, 38.95 87.4, 0 87.4 M69.32 87.4 C50.84 87.4, 32.35 87.4, 0 87.4 M0 87.4 C0 68.9, 0 50.4, 0 0 M0 87.4 C0 69.53, 0 51.66, 0 0" stroke="#0000" stroke-width="2" fill="none"></path></g><g stroke-linecap="round"><g transform="translate(330.79963177123886 214.41129208539536) rotate(0 32.04392751857932 6.746090003911405)" fill-rule="evenodd"><path d="M0 0 L0.19 13.3 L32.61 32.98 L62.96 14.99 L64.09 0 L31.48 -19.49 L0 0" stroke="none" stroke-width="0" fill="#ced4da" fill-rule="evenodd"></path><path d="M0 0 C0.05 3.66, 0.1 7.32, 0.19 13.3 M0 0 C0.07 4.95, 0.14 9.91, 0.19 13.3 M0.19 13.3 C11.41 20.12, 22.64 26.93, 32.61 32.98 M0.19 13.3 C7.63 17.82, 15.08 22.34, 32.61 32.98 M32.61 32.98 C43.54 26.5, 54.47 20.02, 62.96 14.99 M32.61 32.98 C40 28.6, 47.39 24.22, 62.96 14.99 M62.96 14.99 C63.26 10.99, 63.56 6.98, 64.09 0 M62.96 14.99 C63.38 9.48, 63.79 3.97, 64.09 0 M64.09 0 C53.72 -6.2, 43.35 -12.39, 31.48 -19.49 M64.09 0 C57.1 -4.17, 50.12 -8.35, 31.48 -19.49 M31.48 -19.49 C19.06 -11.8, 6.65 -4.11, 0 0 M31.48 -19.49 C24.43 -15.12, 17.37 -10.75, 0 0 M0 0 C0 0, 0 0, 0 0 M0 0 C0 0, 0 0, 0 0" stroke="#495057" stroke-width="2" fill="none"></path></g></g><mask></mask><g stroke-linecap="round"><g transform="translate(363.2183420678166 246.0804368259814) rotate(0 5.684341886080802e-14 -6.371307225916354)"><path d="M0 0 C0 -4.53, 0 -9.06, 0 -12.74 M0 0 C0 -4.37, 0 -8.75, 0 -12.74" stroke="#495057" stroke-width="2" fill="none"></path></g></g><mask></mask><g stroke-linecap="round"><g transform="translate(331.1744145492355 214.7860748633904) rotate(0 31.38805765708787 9.182178060879409)"><path d="M0 0 C9.93 5.69, 19.86 11.38, 32.04 18.36 M0 0 C12.28 7.04, 24.55 14.07, 32.04 18.36 M32.04 18.36 C40.18 13.75, 48.31 9.14, 62.78 0.94 M32.04 18.36 C38.74 14.57, 45.43 10.77, 62.78 0.94" stroke="#495057" stroke-width="2" fill="none"></path></g></g><mask></mask><g stroke-linecap="round"><g transform="translate(366.02921290277845 239.5217382110671) rotate(0 7.5308514092099585 -4.216306252444639)"><path d="M0 0 C5.59 -3.13, 11.18 -6.26, 15.06 -8.43 M0 0 C4.16 -2.33, 8.32 -4.66, 15.06 -8.43" stroke="#495057" stroke-width="2" fill="none"></path></g></g><mask></mask><g stroke-linecap="round"><g transform="translate(383.954599615663 227.88631995228974) rotate(0 3.9169667609290855 -0.5402712773695555)" fill-rule="evenodd"><path d="M0 0 L0.09 3.42 L7.24 -1.23 L7.83 -4.5 L0 0" stroke="none" stroke-width="0" fill="#ced4da" fill-rule="evenodd"></path><path d="M0 0 C0.02 0.74, 0.04 1.47, 0.09 3.42 M0 0 C0.03 1.18, 0.06 2.37, 0.09 3.42 M0.09 3.42 C1.98 2.19, 3.88 0.96, 7.24 -1.23 M0.09 3.42 C1.92 2.23, 3.76 1.04, 7.24 -1.23 M7.24 -1.23 C7.42 -2.2, 7.59 -3.17, 7.83 -4.5 M7.24 -1.23 C7.4 -2.1, 7.56 -2.97, 7.83 -4.5 M7.83 -4.5 C4.74 -2.72, 1.64 -0.94, 0 0 M7.83 -4.5 C5.87 -3.37, 3.9 -2.24, 0 0 M0 0 C0 0, 0 0, 0 0 M0 0 C0 0, 0 0, 0 0" stroke="#495057" stroke-width="1" fill="none"></path></g></g><mask></mask><g stroke-linecap="round"><g transform="translate(330.6581321509809 196.74478581304442) rotate(0 32.04392751857932 6.746090003911377)" fill-rule="evenodd"><path d="M0 0 L0.19 13.3 L32.61 32.98 L62.96 14.99 L64.09 0 L31.48 -19.49 L0 0" stroke="none" stroke-width="0" fill="#ced4da" fill-rule="evenodd"></path><path d="M0 0 C0.06 4.3, 0.12 8.59, 0.19 13.3 M0 0 C0.04 2.83, 0.08 5.67, 0.19 13.3 M0.19 13.3 C11.18 19.98, 22.17 26.65, 32.61 32.98 M0.19 13.3 C11.51 20.18, 22.84 27.05, 32.61 32.98 M32.61 32.98 C40.37 28.38, 48.13 23.78, 62.96 14.99 M32.61 32.98 C41.12 27.94, 49.63 22.89, 62.96 14.99 M62.96 14.99 C63.22 11.53, 63.48 8.07, 64.09 0 M62.96 14.99 C63.23 11.45, 63.49 7.91, 64.09 0 M64.09 0 C52.24 -7.08, 40.39 -14.16, 31.48 -19.49 M64.09 0 C54.4 -5.79, 44.71 -11.58, 31.48 -19.49 M31.48 -19.49 C23.26 -14.4, 15.03 -9.3, 0 0 M31.48 -19.49 C21.26 -13.16, 11.03 -6.83, 0 0 M0 0 C0 0, 0 0, 0 0 M0 0 C0 0, 0 0, 0 0" stroke="#495057" stroke-width="2" fill="none"></path></g></g><mask></mask><g stroke-linecap="round"><g transform="translate(363.0768424475468 228.41393055362727) rotate(0 5.684341886080802e-14 -6.371307225916354)"><path d="M0 0 C0 -4.6, 0 -9.19, 0 -12.74 M0 0 C0 -4.85, 0 -9.7, 0 -12.74" stroke="#495057" stroke-width="2" fill="none"></path></g></g><mask></mask><g stroke-linecap="round"><g transform="translate(331.03291492897074 197.119568591039) rotate(0 31.38805765708787 9.182178060879409)"><path d="M0 0 C11.43 6.55, 22.86 13.1, 32.04 18.36 M0 0 C7.21 4.13, 14.43 8.27, 32.04 18.36 M32.04 18.36 C38.36 14.78, 44.68 11.2, 62.78 0.94 M32.04 18.36 C42.25 12.57, 52.46 6.79, 62.78 0.94" stroke="#495057" stroke-width="2" fill="none"></path></g></g><mask></mask><g stroke-linecap="round"><g transform="translate(365.88771328251323 221.8552319387149) rotate(0 7.870438337896701 -4.21630625244461)"><path d="M0 0 C5.24 -2.81, 10.48 -5.62, 15.74 -8.43 M0 0 C4.74 -2.54, 9.48 -5.08, 15.74 -8.43" stroke="#495057" stroke-width="2" fill="none"></path></g></g><mask></mask><g stroke-linecap="round"><g transform="translate(384.32248038842954 209.71043328690797) rotate(0 3.314199962510145 -0.3594412378437539)" fill-rule="evenodd"><path d="M0 0 L0.09 3.42 L6.48 -0.36 L6.63 -4.14 L0 0" stroke="none" stroke-width="0" fill="#ced4da" fill-rule="evenodd"></path><path d="M0 0 C0.03 0.96, 0.05 1.92, 0.09 3.42 M0 0 C0.03 1.24, 0.07 2.48, 0.09 3.42 M0.09 3.42 C2.36 2.08, 4.62 0.74, 6.48 -0.36 M0.09 3.42 C2.44 2.03, 4.8 0.64, 6.48 -0.36 M6.48 -0.36 C6.53 -1.8, 6.59 -3.24, 6.63 -4.14 M6.48 -0.36 C6.51 -1.26, 6.55 -2.15, 6.63 -4.14 M6.63 -4.14 C4.43 -2.77, 2.24 -1.4, 0 0 M6.63 -4.14 C5.09 -3.18, 3.56 -2.22, 0 0 M0 0 C0 0, 0 0, 0 0 M0 0 C0 0, 0 0, 0 0" stroke="#495057" stroke-width="1" fill="none"></path></g></g><mask></mask><g stroke-linecap="round"><g transform="translate(330.5166325307116 179.31938626006053) rotate(0 32.04392751857932 6.746090003911391)" fill-rule="evenodd"><path d="M0 0 L0.19 13.3 L32.61 32.98 L62.96 14.99 L64.09 0 L31.48 -19.49 L0 0" stroke="none" stroke-width="0" fill="#ced4da" fill-rule="evenodd"></path><path d="M0 0 C0.04 3.03, 0.09 6.05, 0.19 13.3 M0 0 C0.04 2.94, 0.08 5.88, 0.19 13.3 M0.19 13.3 C9.52 18.97, 18.86 24.64, 32.61 32.98 M0.19 13.3 C7.29 17.62, 14.39 21.93, 32.61 32.98 M32.61 32.98 C40.7 28.18, 48.8 23.39, 62.96 14.99 M32.61 32.98 C39.03 29.17, 45.46 25.36, 62.96 14.99 M62.96 14.99 C63.19 11.93, 63.42 8.86, 64.09 0 M62.96 14.99 C63.25 11.21, 63.53 7.42, 64.09 0 M64.09 0 C57.2 -4.11, 50.32 -8.23, 31.48 -19.49 M64.09 0 C51.52 -7.51, 38.95 -15.02, 31.48 -19.49 M31.48 -19.49 C19 -11.76, 6.51 -4.03, 0 0 M31.48 -19.49 C24.75 -15.32, 18.02 -11.15, 0 0 M0 0 C0 0, 0 0, 0 0 M0 0 C0 0, 0 0, 0 0" stroke="#495057" stroke-width="2" fill="none"></path></g></g><mask></mask><g stroke-linecap="round"><g transform="translate(362.93534282729047 210.98853100064247) rotate(0 5.684341886080802e-14 -6.371307225916354)"><path d="M0 0 C0 -4.75, 0 -9.49, 0 -12.74 M0 0 C0 -4.41, 0 -8.83, 0 -12.74" stroke="#495057" stroke-width="2" fill="none"></path></g></g><mask></mask><g stroke-linecap="round"><g transform="translate(330.89141530871393 179.69416903805444) rotate(0 31.38805765708787 9.182178060879409)"><path d="M0 0 C11 6.3, 22 12.61, 32.04 18.36 M0 0 C11.52 6.6, 23.05 13.21, 32.04 18.36 M32.04 18.36 C43.06 12.12, 54.08 5.87, 62.78 0.94 M32.04 18.36 C39.47 14.15, 46.9 9.94, 62.78 0.94" stroke="#495057" stroke-width="2" fill="none"></path></g></g><mask></mask><g stroke-linecap="round"><g transform="translate(365.7462136622528 204.42983238572884) rotate(0 7.870438337896701 -4.21630625244461)"><path d="M0 0 C6.03 -3.23, 12.06 -6.46, 15.74 -8.43 M0 0 C4.17 -2.23, 8.33 -4.46, 15.74 -8.43" stroke="#495057" stroke-width="2" fill="none"></path></g></g><mask></mask><g stroke-linecap="round"><g transform="translate(384.1809807681652 192.2850337339235) rotate(0 3.6155833617195867 -0.29916455800190533)" fill-rule="evenodd"><path d="M0 0 L0.09 3.42 L6.84 -0.24 L7.23 -4.02 L0 0" stroke="none" stroke-width="0" fill="#ced4da" fill-rule="evenodd"></path><path d="M0 0 C0.02 0.94, 0.05 1.89, 0.09 3.42 M0 0 C0.02 0.85, 0.04 1.7, 0.09 3.42 M0.09 3.42 C1.58 2.61, 3.07 1.8, 6.84 -0.24 M0.09 3.42 C1.88 2.45, 3.67 1.48, 6.84 -0.24 M6.84 -0.24 C6.93 -1.13, 7.02 -2.02, 7.23 -4.02 M6.84 -0.24 C6.98 -1.56, 7.11 -2.89, 7.23 -4.02 M7.23 -4.02 C5.02 -2.79, 2.81 -1.56, 0 0 M7.23 -4.02 C5.28 -2.94, 3.33 -1.85, 0 0 M0 0 C0 0, 0 0, 0 0 M0 0 C0 0, 0 0, 0 0" stroke="#495057" stroke-width="1" fill="none"></path></g></g><mask></mask><g stroke-linecap="round" transform="translate(327.4993339993339 365.1078234510377) rotate(0 34.65909090909099 43.70059288537561)"><path d="M0 0 L69.32 0 L69.32 87.4 L0 87.4" stroke="none" stroke-width="0" fill="#0000"></path><path d="M0 0 C20.5 0, 41 0, 69.32 0 M0 0 C23.76 0, 47.52 0, 69.32 0 M69.32 0 C69.32 30.19, 69.32 60.39, 69.32 87.4 M69.32 0 C69.32 18.11, 69.32 36.21, 69.32 87.4 M69.32 87.4 C43.54 87.4, 17.76 87.4, 0 87.4 M69.32 87.4 C52.28 87.4, 35.23 87.4, 0 87.4 M0 87.4 C0 61.43, 0 35.45, 0 0 M0 87.4 C0 62.02, 0 36.63, 0 0" stroke="#0000" stroke-width="2" fill="none"></path></g><g stroke-linecap="round"><g transform="translate(330.79963177123886 419.9112920853954) rotate(0 32.04392751857932 6.7460900039114335)" fill-rule="evenodd"><path d="M0 0 L0.19 13.3 L32.61 32.98 L62.96 14.99 L64.09 0 L31.48 -19.49 L0 0" stroke="none" stroke-width="0" fill="#ced4da" fill-rule="evenodd"></path><path d="M0 0 C0.06 4.44, 0.13 8.88, 0.19 13.3 M0 0 C0.05 3.62, 0.1 7.25, 0.19 13.3 M0.19 13.3 C12.8 20.96, 25.42 28.62, 32.61 32.98 M0.19 13.3 C11.67 20.27, 23.16 27.24, 32.61 32.98 M32.61 32.98 C40.76 28.15, 48.9 23.32, 62.96 14.99 M32.61 32.98 C39.36 28.98, 46.11 24.98, 62.96 14.99 M62.96 14.99 C63.38 9.42, 63.8 3.85, 64.09 0 M62.96 14.99 C63.38 9.42, 63.8 3.85, 64.09 0 M64.09 0 C53.43 -6.37, 42.78 -12.74, 31.48 -19.49 M64.09 0 C55.65 -5.04, 47.22 -10.08, 31.48 -19.49 M31.48 -19.49 C20.19 -12.5, 8.91 -5.51, 0 0 M31.48 -19.49 C24.08 -14.91, 16.68 -10.33, 0 0 M0 0 C0 0, 0 0, 0 0 M0 0 C0 0, 0 0, 0 0" stroke="#495057" stroke-width="2" fill="none"></path></g></g><mask></mask><g stroke-linecap="round"><g transform="translate(363.2183420678166 451.58043682598145) rotate(0 5.684341886080802e-14 -6.3713072259163255)"><path d="M0 0 C0 -4.42, 0 -8.83, 0 -12.74 M0 0 C0 -3.04, 0 -6.08, 0 -12.74" stroke="#495057" stroke-width="2" fill="none"></path></g></g><mask></mask><g stroke-linecap="round"><g transform="translate(331.1744145492355 420.28607486339047) rotate(0 31.38805765708787 9.182178060879437)"><path d="M0 0 C11.36 6.51, 22.73 13.02, 32.04 18.36 M0 0 C9.95 5.7, 19.9 11.4, 32.04 18.36 M32.04 18.36 C41.53 12.99, 51.01 7.61, 62.78 0.94 M32.04 18.36 C38.73 14.57, 45.42 10.78, 62.78 0.94" stroke="#495057" stroke-width="2" fill="none"></path></g></g><mask></mask><g stroke-linecap="round"><g transform="translate(366.02921290277845 445.02173821106726) rotate(0 7.5308514092099585 -4.21630625244461)"><path d="M0 0 C3.73 -2.09, 7.46 -4.18, 15.06 -8.43 M0 0 C5.58 -3.12, 11.16 -6.25, 15.06 -8.43" stroke="#495057" stroke-width="2" fill="none"></path></g></g><mask></mask><g stroke-linecap="round"><g transform="translate(383.954599615663 433.3863199522898) rotate(0 3.9169667609290855 -0.5402712773695271)" fill-rule="evenodd"><path d="M0 0 L0.09 3.42 L7.24 -1.23 L7.83 -4.5 L0 0" stroke="none" stroke-width="0" fill="#ced4da" fill-rule="evenodd"></path><path d="M0 0 C0.03 1.19, 0.06 2.39, 0.09 3.42 M0 0 C0.02 0.95, 0.05 1.89, 0.09 3.42 M0.09 3.42 C2.02 2.17, 3.94 0.92, 7.24 -1.23 M0.09 3.42 C1.64 2.41, 3.2 1.4, 7.24 -1.23 M7.24 -1.23 C7.37 -1.9, 7.49 -2.57, 7.83 -4.5 M7.24 -1.23 C7.43 -2.25, 7.61 -3.27, 7.83 -4.5 M7.83 -4.5 C5.55 -3.19, 3.27 -1.88, 0 0 M7.83 -4.5 C5 -2.87, 2.17 -1.25, 0 0 M0 0 C0 0, 0 0, 0 0 M0 0 C0 0, 0 0, 0 0" stroke="#495057" stroke-width="1" fill="none"></path></g></g><mask></mask><g stroke-linecap="round"><g transform="translate(330.6581321509809 402.2447858130444) rotate(0 32.04392751857932 6.746090003911377)" fill-rule="evenodd"><path d="M0 0 L0.19 13.3 L32.61 32.98 L62.96 14.99 L64.09 0 L31.48 -19.49 L0 0" stroke="none" stroke-width="0" fill="#ced4da" fill-rule="evenodd"></path><path d="M0 0 C0.04 2.79, 0.08 5.59, 0.19 13.3 M0 0 C0.07 4.89, 0.14 9.79, 0.19 13.3 M0.19 13.3 C11.78 20.34, 23.38 27.38, 32.61 32.98 M0.19 13.3 C11.95 20.44, 23.71 27.58, 32.61 32.98 M32.61 32.98 C40.51 28.3, 48.41 23.61, 62.96 14.99 M32.61 32.98 C42.59 27.06, 52.57 21.15, 62.96 14.99 M62.96 14.99 C63.2 11.83, 63.44 8.68, 64.09 0 M62.96 14.99 C63.26 11.07, 63.55 7.15, 64.09 0 M64.09 0 C54.87 -5.51, 45.65 -11.02, 31.48 -19.49 M64.09 0 C56.46 -4.56, 48.84 -9.11, 31.48 -19.49 M31.48 -19.49 C23.19 -14.36, 14.9 -9.22, 0 0 M31.48 -19.49 C19.95 -12.35, 8.43 -5.22, 0 0 M0 0 C0 0, 0 0, 0 0 M0 0 C0 0, 0 0, 0 0" stroke="#495057" stroke-width="2" fill="none"></path></g></g><mask></mask><g stroke-linecap="round"><g transform="translate(363.0768424475468 433.9139305536273) rotate(0 5.684341886080802e-14 -6.3713072259163255)"><path d="M0 0 C0 -3.46, 0 -6.92, 0 -12.74 M0 0 C0 -3.59, 0 -7.18, 0 -12.74" stroke="#495057" stroke-width="2" fill="none"></path></g></g><mask></mask><g stroke-linecap="round"><g transform="translate(331.03291492897074 402.619568591039) rotate(0 31.38805765708787 9.182178060879409)"><path d="M0 0 C11.54 6.61, 23.08 13.23, 32.04 18.36 M0 0 C8.13 4.66, 16.27 9.32, 32.04 18.36 M32.04 18.36 C41.33 13.1, 50.61 7.84, 62.78 0.94 M32.04 18.36 C43.04 12.13, 54.04 5.89, 62.78 0.94" stroke="#495057" stroke-width="2" fill="none"></path></g></g><mask></mask><g stroke-linecap="round"><g transform="translate(365.88771328251323 427.35523193871495) rotate(0 7.870438337896701 -4.21630625244461)"><path d="M0 0 C3.79 -2.03, 7.58 -4.06, 15.74 -8.43 M0 0 C5 -2.68, 9.99 -5.35, 15.74 -8.43" stroke="#495057" stroke-width="2" fill="none"></path></g></g><mask></mask><g stroke-linecap="round"><g transform="translate(384.32248038842954 415.210433286908) rotate(0 3.314199962510145 -0.3594412378437255)" fill-rule="evenodd"><path d="M0 0 L0.09 3.42 L6.48 -0.36 L6.63 -4.14 L0 0" stroke="none" stroke-width="0" fill="#ced4da" fill-rule="evenodd"></path><path d="M0 0 C0.02 0.8, 0.04 1.6, 0.09 3.42 M0 0 C0.02 0.86, 0.05 1.72, 0.09 3.42 M0.09 3.42 C2.09 2.24, 4.09 1.06, 6.48 -0.36 M0.09 3.42 C1.94 2.32, 3.8 1.23, 6.48 -0.36 M6.48 -0.36 C6.53 -1.58, 6.57 -2.79, 6.63 -4.14 M6.48 -0.36 C6.52 -1.54, 6.57 -2.73, 6.63 -4.14 M6.63 -4.14 C4.15 -2.59, 1.67 -1.04, 0 0 M6.63 -4.14 C4.29 -2.68, 1.95 -1.22, 0 0 M0 0 C0 0, 0 0, 0 0 M0 0 C0 0, 0 0, 0 0" stroke="#495057" stroke-width="1" fill="none"></path></g></g><mask></mask><g stroke-linecap="round"><g transform="translate(330.5166325307116 384.8193862600606) rotate(0 32.04392751857932 6.746090003911405)" fill-rule="evenodd"><path d="M0 0 L0.19 13.3 L32.61 32.98 L62.96 14.99 L64.09 0 L31.48 -19.49 L0 0" stroke="none" stroke-width="0" fill="#ced4da" fill-rule="evenodd"></path><path d="M0 0 C0.06 4.56, 0.13 9.12, 0.19 13.3 M0 0 C0.06 4.6, 0.13 9.19, 0.19 13.3 M0.19 13.3 C6.9 17.38, 13.62 21.46, 32.61 32.98 M0.19 13.3 C12.24 20.62, 24.3 27.94, 32.61 32.98 M32.61 32.98 C40.07 28.56, 47.53 24.13, 62.96 14.99 M32.61 32.98 C41.63 27.63, 50.65 22.29, 62.96 14.99 M62.96 14.99 C63.29 10.64, 63.62 6.28, 64.09 0 M62.96 14.99 C63.24 11.33, 63.51 7.68, 64.09 0 M64.09 0 C53.27 -6.46, 42.46 -12.93, 31.48 -19.49 M64.09 0 C55.42 -5.18, 46.75 -10.36, 31.48 -19.49 M31.48 -19.49 C22.41 -13.87, 13.34 -8.26, 0 0 M31.48 -19.49 C22.68 -14.04, 13.87 -8.59, 0 0 M0 0 C0 0, 0 0, 0 0 M0 0 C0 0, 0 0, 0 0" stroke="#495057" stroke-width="2" fill="none"></path></g></g><mask></mask><g stroke-linecap="round"><g transform="translate(362.93534282729047 416.4885310006425) rotate(0 5.684341886080802e-14 -6.371307225916354)"><path d="M0 0 C0 -3.47, 0 -6.94, 0 -12.74 M0 0 C0 -4.96, 0 -9.92, 0 -12.74" stroke="#495057" stroke-width="2" fill="none"></path></g></g><mask></mask><g stroke-linecap="round"><g transform="translate(330.89141530871393 385.1941690380545) rotate(0 31.38805765708787 9.182178060879409)"><path d="M0 0 C7.64 4.38, 15.29 8.76, 32.04 18.36 M0 0 C12.63 7.24, 25.26 14.47, 32.04 18.36 M32.04 18.36 C41.91 12.77, 51.77 7.18, 62.78 0.94 M32.04 18.36 C43.66 11.77, 55.28 5.19, 62.78 0.94" stroke="#495057" stroke-width="2" fill="none"></path></g></g><mask></mask><g stroke-linecap="round"><g transform="translate(365.7462136622528 409.92983238572896) rotate(0 7.870438337896701 -4.21630625244461)"><path d="M0 0 C4.89 -2.62, 9.77 -5.24, 15.74 -8.43 M0 0 C4.86 -2.6, 9.71 -5.2, 15.74 -8.43" stroke="#495057" stroke-width="2" fill="none"></path></g></g><mask></mask><g stroke-linecap="round"><g transform="translate(384.1809807681652 397.7850337339236) rotate(0 3.6155833617195867 -0.29916455800190533)" fill-rule="evenodd"><path d="M0 0 L0.09 3.42 L6.84 -0.24 L7.23 -4.02 L0 0" stroke="none" stroke-width="0" fill="#ced4da" fill-rule="evenodd"></path><path d="M0 0 C0.03 1.27, 0.07 2.53, 0.09 3.42 M0 0 C0.02 0.86, 0.05 1.72, 0.09 3.42 M0.09 3.42 C1.93 2.43, 3.76 1.43, 6.84 -0.24 M0.09 3.42 C1.46 2.68, 2.82 1.94, 6.84 -0.24 M6.84 -0.24 C6.94 -1.22, 7.04 -2.2, 7.23 -4.02 M6.84 -0.24 C6.98 -1.59, 7.12 -2.93, 7.23 -4.02 M7.23 -4.02 C5.16 -2.87, 3.08 -1.71, 0 0 M7.23 -4.02 C4.66 -2.59, 2.09 -1.16, 0 0 M0 0 C0 0, 0 0, 0 0 M0 0 C0 0, 0 0, 0 0" stroke="#495057" stroke-width="1" fill="none"></path></g></g><mask></mask><g stroke-linecap="round"><g transform="translate(119.90842490842488 55.5) rotate(0 97.25 80.5)"><path d="M0 0 C17.92 10.75, 75.08 37.67, 107.5 64.5 C139.92 91.33, 180 144.92, 194.5 161 M0 0 C17.92 10.75, 75.08 37.67, 107.5 64.5 C139.92 91.33, 180 144.92, 194.5 161" stroke="#4678a1" stroke-width="1" fill="none"></path></g></g><mask></mask><g stroke-linecap="round"><g transform="translate(146.40842490842488 286) rotate(0 83.5 -35)"><path d="M0 0 C14 -7.58, 56.17 -33.83, 84 -45.5 C111.83 -57.17, 153.17 -65.92, 167 -70 M0 0 C14 -7.58, 56.17 -33.83, 84 -45.5 C111.83 -57.17, 153.17 -65.92, 167 -70" stroke="#4678a1" stroke-width="1" fill="none"></path></g></g><mask></mask><g stroke-linecap="round"><g transform="translate(148.40842490842488 290) rotate(0 85.5 55.75)"><path d="M0 0 C13.83 11.75, 54.5 51.92, 83 70.5 C111.5 89.08, 156.33 104.67, 171 111.5 M0 0 C13.83 11.75, 54.5 51.92, 83 70.5 C111.5 89.08, 156.33 104.67, 171 111.5" stroke="#4678a1" stroke-width="1" fill="none"></path></g></g><mask></mask><g stroke-linecap="round"><g transform="translate(87.90842490842488 527.5) rotate(0 113 -155.5)"><path d="M0 0 C22.33 -18.42, 96.33 -58.67, 134 -110.5 C171.67 -162.33, 210.67 -277.58, 226 -311 M0 0 C22.33 -18.42, 96.33 -58.67, 134 -110.5 C171.67 -162.33, 210.67 -277.58, 226 -311" stroke="#4678a1" stroke-width="1" fill="none"></path></g></g><mask></mask><g transform="translate(289.0802999084249 272.5) rotate(0 73.828125 33.599999999999994)"><text x="73.828125" y="0" font-family="Cascadia, Segoe UI Emoji" font-size="28px" fill="#4678a1" text-anchor="middle" style="white-space: pre;" direction="ltr" dominant-baseline="text-before-edge">System</text><text x="73.828125" y="33.6" font-family="Cascadia, Segoe UI Emoji" font-size="28px" fill="#4678a1" text-anchor="middle" style="white-space: pre;" direction="ltr" dominant-baseline="text-before-edge">Suppliers</text></g><g stroke-linecap="round" transform="translate(649.1584249084249 220.25) rotate(0 9.75 11.25)"><path d="M19.5 11.25 C19.5 11.9, 19.45 12.56, 19.35 13.2 C19.25 13.84, 19.11 14.49, 18.91 15.1 C18.72 15.71, 18.48 16.31, 18.19 16.88 C17.91 17.44, 17.58 17.98, 17.22 18.48 C16.86 18.98, 16.45 19.45, 16.02 19.87 C15.58 20.29, 15.11 20.67, 14.63 20.99 C14.14 21.32, 13.62 21.6, 13.08 21.82 C12.55 22.04, 12 22.22, 11.44 22.33 C10.89 22.44, 10.31 22.5, 9.75 22.5 C9.19 22.5, 8.61 22.44, 8.06 22.33 C7.5 22.22, 6.95 22.04, 6.42 21.82 C5.88 21.6, 5.36 21.32, 4.88 20.99 C4.39 20.67, 3.92 20.29, 3.48 19.87 C3.05 19.45, 2.64 18.98, 2.28 18.48 C1.92 17.98, 1.59 17.44, 1.31 16.88 C1.02 16.31, 0.78 15.71, 0.59 15.1 C0.39 14.49, 0.25 13.84, 0.15 13.2 C0.05 12.56, 0 11.9, 0 11.25 C0 10.6, 0.05 9.94, 0.15 9.3 C0.25 8.66, 0.39 8.01, 0.59 7.4 C0.78 6.79, 1.02 6.19, 1.31 5.63 C1.59 5.06, 1.92 4.52, 2.28 4.02 C2.64 3.52, 3.05 3.05, 3.48 2.63 C3.92 2.21, 4.39 1.83, 4.87 1.51 C5.36 1.18, 5.88 0.9, 6.42 0.68 C6.95 0.46, 7.5 0.28, 8.06 0.17 C8.61 0.06, 9.19 0, 9.75 0 C10.31 0, 10.89 0.06, 11.44 0.17 C12 0.28, 12.55 0.46, 13.08 0.68 C13.62 0.9, 14.14 1.18, 14.62 1.51 C15.11 1.83, 15.58 2.21, 16.02 2.63 C16.45 3.05, 16.86 3.52, 17.22 4.02 C17.58 4.52, 17.91 5.06, 18.19 5.62 C18.48 6.19, 18.72 6.79, 18.91 7.4 C19.11 8.01, 19.25 8.66, 19.35 9.3 C19.45 9.94, 19.48 10.92, 19.5 11.25 C19.52 11.58, 19.52 10.92, 19.5 11.25" stroke="none" stroke-width="0" fill="#ffffff"></path><path d="M19.5 11.25 C19.5 11.9, 19.45 12.56, 19.35 13.2 C19.25 13.84, 19.11 14.49, 18.91 15.1 C18.72 15.71, 18.48 16.31, 18.19 16.88 C17.91 17.44, 17.58 17.98, 17.22 18.48 C16.86 18.98, 16.45 19.45, 16.02 19.87 C15.58 20.29, 15.11 20.67, 14.63 20.99 C14.14 21.32, 13.62 21.6, 13.08 21.82 C12.55 22.04, 12 22.22, 11.44 22.33 C10.89 22.44, 10.31 22.5, 9.75 22.5 C9.19 22.5, 8.61 22.44, 8.06 22.33 C7.5 22.22, 6.95 22.04, 6.42 21.82 C5.88 21.6, 5.36 21.32, 4.88 20.99 C4.39 20.67, 3.92 20.29, 3.48 19.87 C3.05 19.45, 2.64 18.98, 2.28 18.48 C1.92 17.98, 1.59 17.44, 1.31 16.88 C1.02 16.31, 0.78 15.71, 0.59 15.1 C0.39 14.49, 0.25 13.84, 0.15 13.2 C0.05 12.56, 0 11.9, 0 11.25 C0 10.6, 0.05 9.94, 0.15 9.3 C0.25 8.66, 0.39 8.01, 0.59 7.4 C0.78 6.79, 1.02 6.19, 1.31 5.63 C1.59 5.06, 1.92 4.52, 2.28 4.02 C2.64 3.52, 3.05 3.05, 3.48 2.63 C3.92 2.21, 4.39 1.83, 4.87 1.51 C5.36 1.18, 5.88 0.9, 6.42 0.68 C6.95 0.46, 7.5 0.28, 8.06 0.17 C8.61 0.06, 9.19 0, 9.75 0 C10.31 0, 10.89 0.06, 11.44 0.17 C12 0.28, 12.55 0.46, 13.08 0.68 C13.62 0.9, 14.14 1.18, 14.62 1.51 C15.11 1.83, 15.58 2.21, 16.02 2.63 C16.45 3.05, 16.86 3.52, 17.22 4.02 C17.58 4.52, 17.91 5.06, 18.19 5.62 C18.48 6.19, 18.72 6.79, 18.91 7.4 C19.11 8.01, 19.25 8.66, 19.35 9.3 C19.45 9.94, 19.48 10.92, 19.5 11.25 C19.52 11.58, 19.52 10.92, 19.5 11.25" stroke="#ffffff" stroke-width="1" fill="none"></path></g><g stroke-linecap="round" transform="translate(648.9084249084249 338) rotate(0 9.75 11.25)"><path d="M19.5 11.25 C19.5 11.9, 19.45 12.56, 19.35 13.2 C19.25 13.84, 19.11 14.49, 18.91 15.1 C18.72 15.71, 18.48 16.31, 18.19 16.88 C17.91 17.44, 17.58 17.98, 17.22 18.48 C16.86 18.98, 16.45 19.45, 16.02 19.87 C15.58 20.29, 15.11 20.67, 14.63 20.99 C14.14 21.32, 13.62 21.6, 13.08 21.82 C12.55 22.04, 12 22.22, 11.44 22.33 C10.89 22.44, 10.31 22.5, 9.75 22.5 C9.19 22.5, 8.61 22.44, 8.06 22.33 C7.5 22.22, 6.95 22.04, 6.42 21.82 C5.88 21.6, 5.36 21.32, 4.88 20.99 C4.39 20.67, 3.92 20.29, 3.48 19.87 C3.05 19.45, 2.64 18.98, 2.28 18.48 C1.92 17.98, 1.59 17.44, 1.31 16.88 C1.02 16.31, 0.78 15.71, 0.59 15.1 C0.39 14.49, 0.25 13.84, 0.15 13.2 C0.05 12.56, 0 11.9, 0 11.25 C0 10.6, 0.05 9.94, 0.15 9.3 C0.25 8.66, 0.39 8.01, 0.59 7.4 C0.78 6.79, 1.02 6.19, 1.31 5.63 C1.59 5.06, 1.92 4.52, 2.28 4.02 C2.64 3.52, 3.05 3.05, 3.48 2.63 C3.92 2.21, 4.39 1.83, 4.87 1.51 C5.36 1.18, 5.88 0.9, 6.42 0.68 C6.95 0.46, 7.5 0.28, 8.06 0.17 C8.61 0.06, 9.19 0, 9.75 0 C10.31 0, 10.89 0.06, 11.44 0.17 C12 0.28, 12.55 0.46, 13.08 0.68 C13.62 0.9, 14.14 1.18, 14.62 1.51 C15.11 1.83, 15.58 2.21, 16.02 2.63 C16.45 3.05, 16.86 3.52, 17.22 4.02 C17.58 4.52, 17.91 5.06, 18.19 5.62 C18.48 6.19, 18.72 6.79, 18.91 7.4 C19.11 8.01, 19.25 8.66, 19.35 9.3 C19.45 9.94, 19.48 10.92, 19.5 11.25 C19.52 11.58, 19.52 10.92, 19.5 11.25" stroke="none" stroke-width="0" fill="#ffffff"></path><path d="M19.5 11.25 C19.5 11.9, 19.45 12.56, 19.35 13.2 C19.25 13.84, 19.11 14.49, 18.91 15.1 C18.72 15.71, 18.48 16.31, 18.19 16.88 C17.91 17.44, 17.58 17.98, 17.22 18.48 C16.86 18.98, 16.45 19.45, 16.02 19.87 C15.58 20.29, 15.11 20.67, 14.63 20.99 C14.14 21.32, 13.62 21.6, 13.08 21.82 C12.55 22.04, 12 22.22, 11.44 22.33 C10.89 22.44, 10.31 22.5, 9.75 22.5 C9.19 22.5, 8.61 22.44, 8.06 22.33 C7.5 22.22, 6.95 22.04, 6.42 21.82 C5.88 21.6, 5.36 21.32, 4.88 20.99 C4.39 20.67, 3.92 20.29, 3.48 19.87 C3.05 19.45, 2.64 18.98, 2.28 18.48 C1.92 17.98, 1.59 17.44, 1.31 16.88 C1.02 16.31, 0.78 15.71, 0.59 15.1 C0.39 14.49, 0.25 13.84, 0.15 13.2 C0.05 12.56, 0 11.9, 0 11.25 C0 10.6, 0.05 9.94, 0.15 9.3 C0.25 8.66, 0.39 8.01, 0.59 7.4 C0.78 6.79, 1.02 6.19, 1.31 5.63 C1.59 5.06, 1.92 4.52, 2.28 4.02 C2.64 3.52, 3.05 3.05, 3.48 2.63 C3.92 2.21, 4.39 1.83, 4.87 1.51 C5.36 1.18, 5.88 0.9, 6.42 0.68 C6.95 0.46, 7.5 0.28, 8.06 0.17 C8.61 0.06, 9.19 0, 9.75 0 C10.31 0, 10.89 0.06, 11.44 0.17 C12 0.28, 12.55 0.46, 13.08 0.68 C13.62 0.9, 14.14 1.18, 14.62 1.51 C15.11 1.83, 15.58 2.21, 16.02 2.63 C16.45 3.05, 16.86 3.52, 17.22 4.02 C17.58 4.52, 17.91 5.06, 18.19 5.62 C18.48 6.19, 18.72 6.79, 18.91 7.4 C19.11 8.01, 19.25 8.66, 19.35 9.3 C19.45 9.94, 19.48 10.92, 19.5 11.25 C19.52 11.58, 19.52 10.92, 19.5 11.25" stroke="#ffffff" stroke-width="1" fill="none"></path></g><g stroke-linecap="round"><g transform="translate(414.9084249084249 202.5) rotate(0 228.25 25.75)"><path d="M0 0 C76.08 8.58, 380.42 42.92, 456.5 51.5 M0 0 C76.08 8.58, 380.42 42.92, 456.5 51.5" stroke="#4678a1" stroke-width="1" fill="none"></path></g></g><mask></mask><g stroke-linecap="round"><g transform="translate(423.4084249084249 407.5) rotate(0 225.25 -56)"><path d="M0 0 C75.08 -18.67, 375.42 -93.33, 450.5 -112 M0 0 C75.08 -18.67, 375.42 -93.33, 450.5 -112" stroke="#4678a1" stroke-width="1" fill="none"></path></g></g><mask></mask><g transform="translate(518.7834249084249 239.5) rotate(0 65.625 16.80000000000001)"><text x="65.625" y="0" font-family="Cascadia, Segoe UI Emoji" font-size="28px" fill="#4678a1" text-anchor="middle" style="white-space: pre;" direction="ltr" dominant-baseline="text-before-edge">Firewall</text></g><g transform="translate(925.2990499084249 272.4) rotate(0 152.34375 84)"><text x="0" y="0" font-family="Cascadia, Segoe UI Emoji" font-size="20px" fill="#ffffff" text-anchor="start" style="white-space: pre;" direction="ltr" dominant-baseline="text-before-edge">Validates API key</text><text x="0" y="24" font-family="Cascadia, Segoe UI Emoji" font-size="20px" fill="#ffffff" text-anchor="start" style="white-space: pre;" direction="ltr" dominant-baseline="text-before-edge"></text><text x="0" y="48" font-family="Cascadia, Segoe UI Emoji" font-size="20px" fill="#ffffff" text-anchor="start" style="white-space: pre;" direction="ltr" dominant-baseline="text-before-edge">Returns QRISK3 Score</text><text x="0" y="72" font-family="Cascadia, Segoe UI Emoji" font-size="20px" fill="#ffffff" text-anchor="start" style="white-space: pre;" direction="ltr" dominant-baseline="text-before-edge"></text><text x="0" y="96" font-family="Cascadia, Segoe UI Emoji" font-size="20px" fill="#ffffff" text-anchor="start" style="white-space: pre;" direction="ltr" dominant-baseline="text-before-edge">Stateless (no persistence)</text><text x="0" y="120" font-family="Cascadia, Segoe UI Emoji" font-size="20px" fill="#ffffff" text-anchor="start" style="white-space: pre;" direction="ltr" dominant-baseline="text-before-edge"></text><text x="0" y="144" font-family="Cascadia, Segoe UI Emoji" font-size="20px" fill="#ffffff" text-anchor="start" style="white-space: pre;" direction="ltr" dominant-baseline="text-before-edge">SNOMED-CT aware</text></g></svg>