<svg xmlns="http://www.w3.org/2000/svg" xmlns:xlink="http://www.w3.org/1999/xlink" zoomAndPan="magnify" preserveAspectRatio="xMidYMid meet" version="1.0" viewBox="-22.1 550.28 1575.62 725.74"><path fill="#020100" d="M 1541.785156 554.9375 C 1524.039062 610.359375 1478.589844 651.921875 1422.320312 665.777344 C 1361.289062 680.933594 1297.226562 666.210938 1239.65625 643.695312 C 1208.492188 631.140625 1178.191406 616.417969 1147.460938 602.132812 C 1117.59375 588.277344 1087.726562 573.554688 1055.695312 564.464844 C 1026.261719 556.238281 995.097656 553.640625 965.664062 562.296875 C 942.289062 569.226562 921.511719 582.214844 902.035156 596.503906 C 862.644531 625.945312 826.285156 664.480469 777.375 677.035156 C 727.164062 690.023438 675.65625 671.839844 629.339844 653.65625 C 582.160156 635.039062 533.679688 612.957031 481.738281 612.523438 C 425.46875 612.089844 381.316406 644.128906 339.332031 677.46875 C 317.257812 695.21875 295.179688 712.972656 269.644531 726.394531 C 244.539062 739.382812 217.703125 748.472656 190 753.671875 C 134.59375 764.0625 75.726562 758 23.785156 735.484375 C 11.230469 729.855469 -0.886719 723.363281 -12.574219 716.433594 C -15.171875 714.703125 -17.335938 715.136719 -19.5 716.433594 C -20.796875 717.734375 -22.097656 719.464844 -22.097656 722.496094 C -22.097656 780.945312 -22.097656 1185.769531 -22.097656 1244.652344 C -22.097656 1252.878906 -22.097656 1261.105469 -22.097656 1269.332031 C -22.097656 1272.796875 -19.066406 1275.828125 -15.605469 1275.828125 C -1.753906 1275.828125 12.53125 1275.828125 26.382812 1275.828125 C 64.039062 1275.828125 102.128906 1275.828125 139.789062 1275.828125 C 196.058594 1275.828125 251.894531 1275.828125 308.167969 1275.828125 C 376.558594 1275.828125 444.945312 1275.828125 513.769531 1275.828125 C 588.652344 1275.828125 663.101562 1275.828125 737.984375 1275.828125 C 813.734375 1275.828125 889.914062 1275.828125 965.664062 1275.828125 C 1035.785156 1275.828125 1106.339844 1275.828125 1176.460938 1275.828125 C 1236.195312 1275.828125 1295.925781 1275.828125 1355.226562 1275.828125 C 1398.078125 1275.828125 1440.933594 1275.828125 1483.785156 1275.828125 C 1504.128906 1275.828125 1524.472656 1276.261719 1544.382812 1275.828125 C 1545.25 1275.828125 1546.113281 1275.828125 1546.980469 1275.828125 C 1550.441406 1275.828125 1553.472656 1272.796875 1553.472656 1269.332031 C 1553.472656 1228.203125 1553.472656 840.261719 1553.472656 799.132812 C 1553.472656 733.753906 1553.472656 667.941406 1553.472656 602.566406 C 1553.472656 587.410156 1553.472656 572.257812 1553.472656 557.101562 C 1554.339844 548.875 1543.949219 548.011719 1541.785156 554.9375 Z M 1541.785156 554.9375 " fill-opacity="1" fill-rule="nonzero"/></svg>